<svg width="880" height="499" viewBox="0 0 880 499" fill="none" xmlns="http://www.w3.org/2000/svg">
<path d="M123.257 83.4494C229.889 15.1793 336.019 -1.01631 365.002 16.9231C393.985 34.8624 363.761 83.5815 397.645 83.4494C440.195 83.2776 468.108 9.47254 549.442 37.5969" stroke="url(#paint0_linear_10_2168)" stroke-width="3" stroke-miterlimit="10"/>
<path d="M131.131 92.2867C237.75 24.0167 343.893 7.8211 372.876 25.7605C401.86 43.6999 371.635 92.4188 405.519 92.2867C448.082 92.115 475.995 18.3099 557.316 46.4343" stroke="url(#paint1_linear_10_2168)" stroke-width="3" stroke-miterlimit="10"/>
<path d="M11.103 276.344H20.2312C20.152 275.538 20.1123 274.732 20.1123 273.9C20.1059 270.11 21.0031 266.373 22.7294 262.999C24.4558 259.625 26.9616 256.711 30.039 254.498C33.1165 252.286 36.677 250.84 40.4253 250.278C44.1735 249.717 48.0016 250.057 51.5921 251.271C54.8588 244.874 60.1826 239.763 66.7069 236.759C73.2311 233.756 80.5762 233.035 87.5598 234.713C94.5435 236.39 100.76 240.369 105.208 246.008C109.656 251.648 112.077 258.62 112.081 265.802C112.081 265.908 112.081 266 112.081 266.093H122.914C127.118 266.093 131.15 267.763 134.123 270.736C137.096 273.709 138.766 277.741 138.766 281.945C138.766 286.149 137.096 290.181 134.123 293.154C131.15 296.127 127.118 297.797 122.914 297.797H11.103C9.66357 297.848 8.2287 297.608 6.88396 297.092C5.53923 296.576 4.31219 295.794 3.27601 294.794C2.23983 293.793 1.41577 292.594 0.852927 291.269C0.290085 289.943 0 288.517 0 287.077C0 285.637 0.290085 284.211 0.852927 282.885C1.41577 281.559 2.23983 280.361 3.27601 279.36C4.31219 278.36 5.53923 277.578 6.88396 277.062C8.2287 276.546 9.66357 276.306 11.103 276.357V276.344Z" fill="url(#paint2_linear_10_2168)"/>
<path d="M795.746 88.733H791.189C791.189 88.3234 791.189 87.9139 791.189 87.5044C791.201 85.6055 790.758 83.7313 789.897 82.0387C789.036 80.3462 787.782 78.8845 786.24 77.776C784.698 76.6675 782.913 75.9444 781.035 75.6673C779.156 75.3902 777.238 75.5672 775.442 76.1833C773.811 72.9815 771.149 70.4222 767.885 68.9179C764.622 67.4136 760.947 67.0519 757.452 67.8911C753.958 68.7303 750.848 70.7216 748.624 73.5439C746.4 76.3663 745.19 79.8554 745.191 83.4489C745.191 83.4489 745.191 83.5413 745.191 83.5942H739.775C737.673 83.5942 735.657 84.4292 734.17 85.9157C732.684 87.4021 731.849 89.4181 731.849 91.5203C731.849 93.6224 732.684 95.6384 734.17 97.1249C735.657 98.6113 737.673 99.4464 739.775 99.4464H795.667C796.393 99.4824 797.118 99.3706 797.8 99.1177C798.481 98.8648 799.104 98.476 799.63 97.975C800.157 97.4741 800.576 96.8713 800.862 96.2034C801.149 95.5355 801.296 94.8164 801.296 94.0897C801.296 93.3629 801.149 92.6438 800.862 91.9759C800.576 91.308 800.157 90.7052 799.63 90.2043C799.104 89.7033 798.481 89.3146 797.8 89.0616C797.118 88.8087 796.393 88.6969 795.667 88.733H795.746Z" fill="url(#paint3_linear_10_2168)"/>
<path d="M225.028 455.975C316.385 455.975 390.445 446.754 390.445 435.38C390.445 424.006 316.385 414.786 225.028 414.786C133.67 414.786 59.6104 424.006 59.6104 435.38C59.6104 446.754 133.67 455.975 225.028 455.975Z" fill="#C5C7CE"/>
<path d="M458.227 463.822C546.973 463.822 618.915 455.595 618.915 445.447C618.915 435.298 546.973 427.071 458.227 427.071C369.482 427.071 297.539 435.298 297.539 445.447C297.539 455.595 369.482 463.822 458.227 463.822Z" fill="#C5C7CE"/>
<path d="M721.413 464.813C802.454 464.813 868.151 456.367 868.151 445.949C868.151 435.53 802.454 427.084 721.413 427.084C640.372 427.084 574.675 435.53 574.675 445.949C574.675 456.367 640.372 464.813 721.413 464.813Z" fill="#C5C7CE"/>
<path d="M355.268 430.77C361.595 415.592 377.54 417.032 381.952 420.4C389.297 408.379 404.832 407.943 412.428 420.017C423.894 412.474 440.169 420.466 442.362 430.77H355.268Z" fill="#C5C7CE"/>
<path d="M123.191 424.059C130.589 406.331 142.531 406.529 154.367 411.946C162.941 397.903 181.105 397.414 190.035 411.496C201.858 398.101 222.4 412.025 225.028 424.059H123.191Z" fill="#C5C7CE"/>
<path d="M304.118 312.249L272.611 295.115L309.402 289.95L340.895 307.084L304.118 312.249Z" fill="#0566C6"/>
<path d="M226.191 437.837L194.685 420.704L194.79 364.045L226.296 381.179L226.191 437.837Z" fill="#0566C6"/>
<path d="M166.891 331.536L135.385 314.402L194.91 306.04L226.403 323.174L166.891 331.536Z" fill="#0566C6"/>
<path d="M226.402 323.174L194.909 306.04L195.094 202.103L226.6 219.236L226.402 323.174Z" fill="#0566C6"/>
<path d="M214.355 137.993L182.849 120.86L272.955 108.205L304.461 125.338L214.355 137.993Z" fill="#0566C6"/>
<path d="M101.17 344.785L69.6641 327.652L182.849 120.86L214.355 137.994L101.17 344.785Z" fill="#0566C6"/>
<path d="M101.065 398.775L69.5586 381.642L69.6643 327.652L101.17 344.785L101.065 398.775Z" fill="#0566C6"/>
<path d="M304.118 312.262L340.908 307.084L340.803 365.089L304.012 370.254L303.907 426.913L226.205 437.837L226.31 381.179L101.078 398.775L101.171 344.798L214.355 138.007L304.462 125.338L304.118 312.262ZM226.416 323.173L226.601 219.236L166.891 331.522L226.416 323.16" fill="#00AEEF"/>
<path d="M506.498 366.344L467.184 380.162C463.287 381.451 459.111 381.648 455.11 380.73L494.437 366.912C498.434 367.827 502.605 367.631 506.498 366.344Z" fill="#0566C6"/>
<path d="M455.109 380.73L494.436 366.912L495.374 367.084L456.047 380.902L455.109 380.73Z" fill="#0566C6"/>
<path d="M456.047 380.901L495.373 367.083C495.928 367.176 496.483 367.255 497.025 367.308L457.711 381.152C457.17 381.152 456.615 381.02 456.047 380.928" fill="#0566C6"/>
<path d="M457.711 381.152L497.024 367.334C497.579 367.401 498.134 367.44 498.676 367.467L459.349 381.258C458.807 381.258 458.266 381.192 457.711 381.126" fill="#0566C6"/>
<path d="M459.35 381.258L498.676 367.44C499.231 367.44 499.786 367.44 500.327 367.44L461.014 381.258C460.459 381.258 459.904 381.258 459.35 381.258Z" fill="#0566C6"/>
<path d="M461.014 381.272L500.327 367.454C500.895 367.454 501.45 367.454 502.005 367.348L462.678 381.153C462.137 381.153 461.568 381.245 461.014 381.258" fill="#0566C6"/>
<path d="M462.68 381.152L502.006 367.334C502.649 367.27 503.289 367.174 503.922 367.043L464.595 380.861C463.962 380.992 463.323 381.089 462.68 381.152Z" fill="#0566C6"/>
<path d="M464.594 380.875L503.92 367.057C504.698 366.902 505.466 366.699 506.219 366.45L466.892 380.268C466.139 380.516 465.372 380.719 464.594 380.875Z" fill="#0566C6"/>
<path d="M466.893 380.267L506.219 366.449L506.497 366.344L467.183 380.162L466.893 380.267Z" fill="#0566C6"/>
<path d="M447.712 198.351L487.025 184.533C470.05 190.49 462.018 219.989 460.803 268.153C459.35 326.449 469.218 361.8 494.41 366.912L455.083 380.73C429.891 375.617 420.037 340.267 421.476 281.971C422.705 233.846 430.75 204.308 447.712 198.351Z" fill="#0566C6"/>
<path d="M447.711 198.351L487.024 184.533C483.551 185.813 480.46 187.954 478.041 190.755L438.715 204.573C441.139 201.771 444.234 199.63 447.711 198.351Z" fill="#0566C6"/>
<path d="M438.715 204.573L478.042 190.755C477.281 191.597 476.567 192.479 475.902 193.397L436.575 207.215C437.24 206.297 437.955 205.415 438.715 204.573Z" fill="#0566C6"/>
<path d="M436.575 207.242L475.902 193.424C475.307 194.243 474.726 195.128 474.171 196.066L434.845 209.884C435.4 208.959 435.981 208.074 436.575 207.242Z" fill="#0566C6"/>
<path d="M434.844 209.871L474.17 196.053C473.642 196.925 473.127 197.836 472.638 198.8L433.312 212.618C433.814 211.654 434.315 210.742 434.844 209.871Z" fill="#0566C6"/>
<path d="M433.311 212.618L472.691 198.853C472.202 199.804 471.726 200.808 471.264 201.839L431.938 215.656C432.4 214.626 432.875 213.622 433.364 212.671" fill="#0566C6"/>
<path d="M431.885 215.603L471.212 201.786C470.737 202.869 470.274 203.992 469.891 205.167L430.564 218.985C431.014 217.81 431.463 216.687 431.885 215.603Z" fill="#0566C6"/>
<path d="M430.512 218.985L469.839 205.167C469.363 206.396 468.927 207.677 468.518 209.012L429.204 222.829C429.627 221.508 430.076 220.187 430.525 218.985" fill="#0566C6"/>
<path d="M429.178 222.829L468.491 209.011C468.029 210.438 467.593 211.931 467.17 213.476L427.844 227.294C428.253 225.748 428.702 224.256 429.165 222.829" fill="#0566C6"/>
<path d="M427.856 227.295L467.183 213.477C466.725 215.186 466.285 216.947 465.862 218.761L426.535 232.579C426.94 230.747 427.381 228.986 427.856 227.295Z" fill="#0566C6"/>
<path d="M426.548 232.605L465.875 218.787C465.412 220.861 464.976 223.014 464.554 225.26L425.267 239.078C425.663 236.832 426.086 234.679 426.588 232.605" fill="#0566C6"/>
<path d="M425.267 239.078L464.58 225.273C464.131 227.915 463.708 230.557 463.338 233.358L424.012 247.175C424.382 244.375 424.822 241.68 425.333 239.091" fill="#0566C6"/>
<path d="M424.012 247.163L463.338 233.345C462.889 236.621 462.506 240.051 462.189 243.635L422.862 257.453C423.193 253.873 423.576 250.452 424.012 247.163Z" fill="#0566C6"/>
<path d="M422.863 257.453L462.189 243.636C461.78 248.061 461.45 252.724 461.212 257.599L421.898 271.417C422.136 266.542 422.453 261.879 422.863 257.453Z" fill="#0566C6"/>
<path d="M421.899 271.416L461.212 257.599C461.041 261.007 460.922 264.534 460.829 268.167C460.829 270.809 460.724 273.345 460.697 275.855L421.384 289.686C421.384 287.163 421.384 284.6 421.503 281.985C421.595 278.365 421.727 274.838 421.899 271.416Z" fill="#0566C6"/>
<path d="M421.383 289.673L460.697 275.842C460.697 281.267 460.763 286.471 460.895 291.456L421.582 305.274C421.397 300.294 421.344 295.089 421.383 289.673Z" fill="#0566C6"/>
<path d="M421.581 305.274L460.894 291.456C461.053 295.71 461.278 299.805 461.595 303.728L422.268 317.546C421.964 313.583 421.726 309.528 421.581 305.274Z" fill="#0566C6"/>
<path d="M422.269 317.546L461.595 303.729C461.873 307.216 462.216 310.585 462.626 313.808L423.312 327.626C422.903 324.402 422.559 321.021 422.269 317.546Z" fill="#0566C6"/>
<path d="M423.312 327.625L462.625 313.781C463.009 316.701 463.431 319.514 463.946 322.209L424.62 336.027C424.135 333.332 423.695 330.523 423.299 327.599" fill="#0566C6"/>
<path d="M424.594 336.054L463.92 322.236C464.378 324.878 464.898 327.379 465.479 329.739L426.153 343.557C425.585 341.166 425.056 338.669 424.594 336.054Z" fill="#0566C6"/>
<path d="M426.152 343.557L465.479 329.739C466.073 332.222 466.721 334.574 467.434 336.819L428.107 350.637C427.394 348.392 426.786 346.04 426.152 343.557Z" fill="#0566C6"/>
<path d="M428.108 350.637L467.408 336.819C468.337 339.798 469.444 342.718 470.723 345.564L431.41 359.382C430.121 356.539 429.009 353.618 428.081 350.637" fill="#0566C6"/>
<path d="M431.437 359.383L470.75 345.565C471.714 347.671 472.804 349.718 474.013 351.694L434.686 365.512C433.476 363.539 432.391 361.492 431.437 359.383Z" fill="#0566C6"/>
<path d="M434.686 365.512L474.012 351.694C474.968 353.24 476.022 354.723 477.169 356.133L437.843 369.951C436.7 368.538 435.646 367.055 434.686 365.512Z" fill="#0566C6"/>
<path d="M437.844 369.951L477.17 356.133C477.796 356.899 478.43 357.626 479.073 358.313L439.759 372.13C439.099 371.443 438.438 370.717 437.844 369.951Z" fill="#0566C6"/>
<path d="M439.758 372.13L479.071 358.312C479.586 358.841 480.102 359.343 480.63 359.832L441.303 373.649C440.775 373.161 440.26 372.659 439.758 372.13Z" fill="#0566C6"/>
<path d="M441.305 373.65L480.618 359.832C481.054 360.228 481.516 360.625 481.939 360.995L442.665 374.812C442.203 374.442 441.754 374.046 441.344 373.65" fill="#0566C6"/>
<path d="M442.664 374.812L481.938 360.995C482.361 361.338 482.783 361.668 483.259 361.985L443.932 375.869C443.492 375.552 443.052 375.222 442.611 374.879" fill="#0566C6"/>
<path d="M443.933 375.869L483.259 361.985C483.669 362.289 484.091 362.58 484.58 362.857L445.267 376.675C444.827 376.393 444.386 376.103 443.946 375.803" fill="#0566C6"/>
<path d="M445.201 376.675L484.581 362.857C484.977 363.122 485.373 363.359 485.77 363.597L446.456 377.415C446.047 377.177 445.65 376.939 445.267 376.675" fill="#0566C6"/>
<path d="M446.391 377.414L485.704 363.597L486.933 364.27L447.593 378.088C447.184 377.877 446.774 377.652 446.378 377.414" fill="#0566C6"/>
<path d="M447.593 378.088L486.919 364.271C487.329 364.482 487.752 364.693 488.24 364.878L448.914 378.696C448.491 378.511 448.082 378.3 447.593 378.088Z" fill="#0566C6"/>
<path d="M448.914 378.696L488.241 364.878C488.663 365.076 489.086 365.261 489.562 365.433L450.235 379.251C449.799 379.079 449.376 378.894 448.914 378.696Z" fill="#0566C6"/>
<path d="M450.142 379.25L489.468 365.433C489.891 365.604 490.327 365.763 490.789 365.921L451.463 379.739L450.142 379.25Z" fill="#0566C6"/>
<path d="M451.45 379.74L490.777 365.922C491.266 366.08 491.754 366.239 492.243 366.371L452.877 380.189C452.375 380.057 451.886 379.898 451.397 379.74" fill="#0566C6"/>
<path d="M452.877 380.188L492.19 366.371L493.696 366.767L454.383 380.585C453.872 380.461 453.37 380.329 452.877 380.188Z" fill="#0566C6"/>
<path d="M454.436 380.585L493.749 366.768L494.436 366.913L455.109 380.731L454.436 380.585Z" fill="#0566C6"/>
<path d="M412.071 134.123L451.385 120.305C465.916 115.179 482.534 114.4 500.606 118.059L461.292 131.877C443.221 128.204 426.655 128.984 412.071 134.123Z" fill="#0566C6"/>
<path d="M412.071 134.123L451.385 120.305L453.155 119.71L413.828 133.528L412.071 134.123Z" fill="#0566C6"/>
<path d="M413.828 133.515L453.155 119.697C456.097 118.75 459.092 117.974 462.124 117.372L422.811 131.19C419.775 131.792 416.775 132.568 413.828 133.515Z" fill="#0566C6"/>
<path d="M422.811 131.19L462.124 117.372C464.581 116.896 467.078 116.513 469.614 116.262L430.301 130.08C427.756 130.344 425.259 130.714 422.811 131.19Z" fill="#0566C6"/>
<path d="M430.301 130.08L469.614 116.262C471.913 116.024 474.238 115.866 476.602 115.813L437.276 129.631C434.911 129.631 432.586 129.842 430.301 130.08Z" fill="#0566C6"/>
<path d="M437.276 129.631L476.656 115.813C478.875 115.813 481.134 115.813 483.433 115.879L444.106 129.697C441.821 129.591 439.562 129.578 437.329 129.697" fill="#0566C6"/>
<path d="M444.053 129.697L483.379 115.879C485.572 115.985 487.805 116.156 489.984 116.394L450.737 130.159C448.478 129.921 446.246 129.75 444.053 129.644" fill="#0566C6"/>
<path d="M450.736 130.159L490.05 116.341C492.269 116.592 494.515 116.896 496.787 117.292L457.46 131.11C455.201 130.714 452.956 130.41 450.736 130.159Z" fill="#0566C6"/>
<path d="M457.462 131.164L496.789 117.346C498.11 117.557 499.325 117.795 500.606 118.046L461.293 131.864C459.972 131.613 458.73 131.375 457.462 131.164Z" fill="#0566C6"/>
<path d="M542.059 430.612L502.732 444.429C541.729 430.731 566.247 385.816 568.083 311.681C570.606 209.963 528.096 145.405 461.292 131.864L500.605 118.046C567.409 131.587 609.933 196.079 607.436 297.929C605.573 371.998 581.016 416.913 542.059 430.612Z" fill="#0566C6"/>
<path d="M461.292 131.864L500.605 118.046C501.583 118.245 502.561 118.456 503.525 118.68L464.211 132.498L461.292 131.864Z" fill="#0566C6"/>
<path d="M464.211 132.498L503.524 118.68C505.717 119.182 507.884 119.737 510.024 120.345L470.71 134.123C468.57 133.515 466.404 132.96 464.211 132.458" fill="#0566C6"/>
<path d="M470.711 134.123L510.024 120.305C512.019 120.873 513.987 121.481 515.929 122.155L476.656 136.012C474.714 135.352 472.692 134.691 470.764 134.163" fill="#0566C6"/>
<path d="M476.655 136.012L515.929 122.234C517.818 122.881 519.707 123.555 521.557 124.321L482.23 138.086C480.381 137.346 478.505 136.646 476.603 135.999" fill="#0566C6"/>
<path d="M482.229 138.086L521.569 124.282C523.366 124.995 525.123 125.748 526.853 126.554L487.54 140.372C485.796 139.566 484.026 138.813 482.256 138.1" fill="#0566C6"/>
<path d="M487.541 140.372L526.854 126.554C528.585 127.346 530.289 128.179 531.98 129.05L492.653 142.868C490.98 141.988 489.276 141.155 487.541 140.372Z" fill="#0566C6"/>
<path d="M492.653 142.868L531.98 129.05C533.644 129.922 535.296 130.834 536.921 131.772L497.607 145.589C495.982 144.651 494.331 143.74 492.653 142.868Z" fill="#0566C6"/>
<path d="M497.607 145.59L536.921 131.772C538.585 132.75 540.223 133.753 541.835 134.81L502.508 148.655C500.897 147.598 499.259 146.594 497.607 145.616" fill="#0566C6"/>
<path d="M502.508 148.654L541.834 134.836C543.472 135.911 545.084 137.025 546.669 138.179L507.356 151.996C505.753 150.834 504.137 149.72 502.508 148.654Z" fill="#0566C6"/>
<path d="M507.355 151.97L546.669 138.152C548.36 139.385 550.02 140.662 551.649 141.983L512.322 155.801C510.698 154.48 509.033 153.159 507.355 151.97Z" fill="#0566C6"/>
<path d="M512.322 155.801L551.649 142.049C553.419 143.502 555.15 144.995 556.854 146.553L517.527 160.371C515.836 158.812 514.092 157.32 512.322 155.867" fill="#0566C6"/>
<path d="M517.528 160.305L556.855 146.487C558.74 148.249 560.585 150.05 562.39 151.89L523.063 165.708C521.302 163.832 519.457 162.031 517.528 160.305Z" fill="#0566C6"/>
<path d="M523.063 165.708L562.389 151.891C564.626 154.216 566.788 156.646 568.875 159.183L529.496 173C527.409 170.464 525.247 168.033 523.01 165.708" fill="#0566C6"/>
<path d="M529.496 173L568.876 159.222C572.536 163.681 575.911 168.367 578.981 173.251L539.655 187.069C536.573 182.167 533.18 177.467 529.496 173Z" fill="#0566C6"/>
<path d="M539.655 187.03L578.982 173.212C582.636 179.034 585.897 185.094 588.744 191.35L549.418 205.168C546.576 198.909 543.314 192.849 539.655 187.03Z" fill="#0566C6"/>
<path d="M549.417 205.167L588.743 191.35C591.772 198.006 594.397 204.839 596.603 211.812L557.237 225.643C555.033 218.665 552.409 211.827 549.377 205.167" fill="#0566C6"/>
<path d="M557.237 225.643L596.564 211.812C598.017 216.436 599.351 221.191 600.527 226.105L561.2 239.923C560.02 235.009 558.699 230.249 557.237 225.643Z" fill="#0566C6"/>
<path d="M561.2 239.923L600.527 226.105C601.548 230.315 602.451 234.634 603.235 239.064L563.961 252.882C563.155 248.457 562.257 244.137 561.24 239.923" fill="#0566C6"/>
<path d="M563.961 252.882L603.274 239.064C604.014 243.186 604.661 247.396 605.216 251.693L565.89 265.511C565.344 261.222 564.701 257.013 563.961 252.882Z" fill="#0566C6"/>
<path d="M565.89 265.511L605.216 251.693C605.758 255.894 606.194 260.174 606.537 264.547L567.211 278.365C566.854 273.992 566.418 269.712 565.89 265.511Z" fill="#0566C6"/>
<path d="M567.225 278.365L606.551 264.547C606.895 268.906 607.159 273.345 607.317 277.876L567.991 291.694C567.832 287.163 567.568 282.724 567.225 278.365Z" fill="#0566C6"/>
<path d="M567.989 291.694L607.316 277.876C607.474 282.473 607.54 287.123 607.501 291.918L568.174 305.736C568.174 300.98 568.174 296.291 567.989 291.694Z" fill="#0566C6"/>
<path d="M568.176 305.736L607.502 291.918C607.502 293.887 607.502 295.881 607.41 297.863C607.339 300.664 607.238 303.416 607.106 306.119L567.806 319.937C567.938 317.233 568.039 314.481 568.109 311.681C568.109 309.686 568.189 307.718 568.202 305.736" fill="#0566C6"/>
<path d="M567.805 319.937L607.131 306.119C606.907 310.505 606.616 314.785 606.233 318.959L566.88 332.777C567.267 328.603 567.567 324.323 567.778 319.937" fill="#0566C6"/>
<path d="M566.88 332.777L606.207 318.959C605.85 322.843 605.428 326.647 604.886 330.346L565.612 344.164C566.101 340.465 566.524 336.661 566.933 332.777" fill="#0566C6"/>
<path d="M565.612 344.165L604.925 330.347C604.463 333.861 603.935 337.269 603.34 340.611L564.014 354.429C564.608 351.087 565.137 347.678 565.612 344.165Z" fill="#0566C6"/>
<path d="M564.014 354.429L603.341 340.611C602.773 343.755 602.165 346.833 601.491 349.858L562.178 363.676C562.838 360.677 563.499 357.599 564.014 354.429Z" fill="#0566C6"/>
<path d="M562.178 363.649L601.492 349.832C600.84 352.738 600.144 355.574 599.405 358.339L560.078 372.157C560.831 369.396 561.518 366.556 562.178 363.649Z" fill="#0566C6"/>
<path d="M560.077 372.157L599.404 358.339C598.664 360.981 597.884 363.702 597.052 366.265L557.726 380.096C558.558 377.454 559.337 374.812 560.077 372.17" fill="#0566C6"/>
<path d="M557.726 380.096L597.053 366.278C596.234 368.828 595.362 371.298 594.411 373.716L555.124 387.533C556.036 385.116 556.907 382.646 557.766 380.096" fill="#0566C6"/>
<path d="M555.124 387.533L594.451 373.715C593.57 376.155 592.597 378.524 591.531 380.822L552.218 394.64C553.231 392.342 554.199 389.973 555.124 387.533Z" fill="#0566C6"/>
<path d="M552.217 394.64L591.583 380.822C590.535 383.2 589.439 385.499 588.294 387.718L548.98 401.536C550.117 399.316 551.213 397.018 552.27 394.64" fill="#0566C6"/>
<path d="M548.929 401.536L588.242 387.758C587.035 390.092 585.78 392.346 584.477 394.521L545.15 408.339C546.463 406.173 547.722 403.918 548.929 401.576" fill="#0566C6"/>
<path d="M545.15 408.3L584.477 394.482C583.032 396.86 581.531 399.141 579.972 401.325L540.646 415.156C542.204 412.963 543.706 410.678 545.15 408.3Z" fill="#0566C6"/>
<path d="M540.645 415.156L579.972 401.325C578.054 403.996 575.999 406.567 573.816 409.026L534.489 422.844C536.677 420.393 538.732 417.827 540.645 415.156Z" fill="#0566C6"/>
<path d="M534.49 422.844L573.816 409.026C565.267 418.813 554.351 426.245 542.112 430.612L502.732 444.43C514.973 440.066 525.89 432.633 534.437 422.844" fill="#0566C6"/>
<path d="M461.292 131.864C528.095 145.404 570.606 209.896 568.083 311.68C565.559 413.465 520.249 460.176 453.471 446.635C387.064 433.174 343.827 368.524 346.311 266.74C348.794 164.955 394.871 118.416 461.292 131.864ZM455.109 380.73C480.684 385.908 491.437 354.732 492.89 296.449C494.343 238.166 485.228 202.961 459.654 197.783C434.462 192.67 422.956 223.688 421.503 281.971C420.05 340.254 429.918 375.618 455.109 380.73Z" fill="#00AEEF"/>
<path d="M254.196 437.27C260.92 425.169 275.65 424.139 283.193 430.902C296.403 414.191 323.325 417.692 334.712 437.27H254.196Z" fill="#C5C7CE"/>
<path d="M608.545 435.605C615.256 423.504 629.985 422.395 637.528 429.237C650.738 412.513 677.66 416.027 689.048 435.605H608.545Z" fill="#C5C7CE"/>
<path d="M464.925 450.163C469.337 442.237 479.033 441.523 483.987 445.975C492.706 434.971 510.407 437.27 517.845 450.163H464.925Z" fill="#C5C7CE"/>
<path d="M182.254 477.389H187.538C187.538 477.389 186.402 448.485 195.979 435.38C183.958 447.468 182.254 464.76 182.254 477.389Z" fill="#00AEEF"/>
<path d="M185.002 477.389H181.937C181.937 477.389 183.258 450.968 169.56 441.391C183.747 449.344 185.002 466.068 185.002 477.389Z" fill="#009EED"/>
<path d="M157.934 477.388C161.698 470.598 169.955 470.017 174.169 473.808C181.606 464.442 196.626 466.398 203.02 477.388H157.934Z" fill="#C5C7CE"/>
<path d="M264.738 498.393H271.026C271.026 498.393 267.063 463.307 285.293 450.479C266.403 461.048 264.738 483.32 264.738 498.393Z" fill="#78F2FF"/>
<path d="M259.626 498.393H267.473C267.473 498.393 265.782 455.302 280.062 435.75C262.175 453.809 259.626 479.569 259.626 498.393Z" fill="#00AEEF"/>
<path d="M263.72 498.393H259.149C259.149 498.393 261.105 459.08 240.655 444.72C261.858 456.57 263.72 481.55 263.72 498.393Z" fill="#009EED"/>
<path d="M256.521 498.393C256.521 498.393 253.681 471.352 243.773 457.957C253.558 469.296 259.468 483.462 260.643 498.393H256.521Z" fill="#00AEEF"/>
<path d="M299.982 498.393C296.217 491.603 287.961 491.022 283.747 494.813C276.31 485.447 261.29 487.402 254.909 498.393H299.982Z" fill="#C5C7CE"/>
<path d="M840.158 335.578L811.796 327.044L851.638 329.316L880 337.837L840.158 335.578Z" fill="#0566C6"/>
<path d="M762.43 446.648L734.067 438.114L740.527 375.604L768.876 384.138L762.43 446.648Z" fill="#0566C6"/>
<path d="M774.28 331.826L745.931 323.292L758.745 199.209L787.093 207.743L774.28 331.826Z" fill="#0566C6"/>
<path d="M783.051 132.524L754.688 124.004L832.311 128.416L860.66 136.95L783.051 132.524Z" fill="#0566C6"/>
<path d="M701.703 327.69L673.354 319.17L745.93 323.292L774.279 331.825L701.703 327.69Z" fill="#0566C6"/>
<path d="M642.548 328.523L614.186 319.99L754.689 124.004L783.051 132.524L642.548 328.523Z" fill="#0566C6"/>
<path d="M637.568 376.661L609.219 368.127L614.186 319.989L642.548 328.523L637.568 376.661Z" fill="#0566C6"/>
<path d="M840.158 335.578L879.999 337.85L874.596 390.149L834.755 387.89L828.295 450.4L762.429 446.648L768.889 384.138L637.58 376.661L642.547 328.523L783.05 132.524L860.673 136.95L840.158 335.578ZM774.292 331.826L787.106 207.743L701.715 327.691L774.292 331.826Z" fill="#00AEEF"/>
<path d="M730 450.348C739.974 432.395 761.81 430.863 772.999 440.902C792.669 416.107 832.537 421.285 849.34 450.348H730Z" fill="#C5C7CE"/>
<path d="M587.857 303.081L639.165 87.9406L590.803 61.3882L412.057 147.307L587.857 303.081Z" fill="url(#paint4_linear_10_2168)"/>
<path d="M696.71 116.395C689.167 129.288 644.081 124.678 600.171 98.9975C556.26 73.317 530.157 36.3022 537.66 23.4091C545.164 10.516 586.921 20.8596 630.845 46.5401C674.768 72.2206 704.253 103.489 696.71 116.395Z" fill="#0566C6"/>
<path d="M696.668 116.332C704.209 103.433 674.719 72.1627 630.799 46.4881C586.88 20.8134 545.163 10.4569 537.622 23.3562C530.082 36.2555 559.572 67.5258 603.492 93.2005C647.411 118.875 689.128 129.232 696.668 116.332Z" fill="#79CDDA"/>
<path d="M701.545 123.344L663.83 84.8096" stroke="url(#paint5_linear_10_2168)" stroke-miterlimit="10"/>
<path d="M582.403 35.0468L532.39 14.2012" stroke="url(#paint6_linear_10_2168)" stroke-miterlimit="10"/>
<path d="M645.745 80.728L649.431 114.956" stroke="url(#paint7_linear_10_2168)" stroke-miterlimit="10"/>
<path d="M589.245 50.0938L551.451 53.7133" stroke="url(#paint8_linear_10_2168)" stroke-miterlimit="10"/>
<path d="M579.562 77.7159L602.178 61.3882" stroke="url(#paint9_linear_10_2168)" stroke-miterlimit="10"/>
<path d="M615.283 99.8036L623.328 73.8457" stroke="url(#paint10_linear_10_2168)" stroke-miterlimit="10"/>
<path d="M669.522 83.4891C663.089 94.48 640.302 87.2804 615.48 72.7757C590.658 58.2709 573.207 41.93 579.627 30.9392C586.047 19.9483 616.153 14.6378 640.975 29.1426C665.797 43.6473 675.969 72.4983 669.522 83.4891Z" fill="#00AEEF"/>
<defs>
<linearGradient id="paint0_linear_10_2168" x1="122.187" y1="46.8044" x2="550.09" y2="46.8044" gradientUnits="userSpaceOnUse">
<stop stop-color="white" stop-opacity="0"/>
<stop offset="0.1" stop-color="#EEFDFF" stop-opacity="0.13"/>
<stop offset="0.35" stop-color="#C5F9FF" stop-opacity="0.43"/>
<stop offset="0.58" stop-color="#A4F6FF" stop-opacity="0.68"/>
<stop offset="0.77" stop-color="#8CF4FF" stop-opacity="0.85"/>
<stop offset="0.91" stop-color="#7DF3FF" stop-opacity="0.96"/>
<stop offset="1" stop-color="#78F2FF"/>
</linearGradient>
<linearGradient id="paint1_linear_10_2168" x1="130.061" y1="55.6418" x2="557.951" y2="55.6418" gradientUnits="userSpaceOnUse">
<stop stop-color="white" stop-opacity="0"/>
<stop offset="0.1" stop-color="#EEFDFF" stop-opacity="0.13"/>
<stop offset="0.35" stop-color="#C5F9FF" stop-opacity="0.43"/>
<stop offset="0.58" stop-color="#A4F6FF" stop-opacity="0.68"/>
<stop offset="0.77" stop-color="#8CF4FF" stop-opacity="0.85"/>
<stop offset="0.91" stop-color="#7DF3FF" stop-opacity="0.96"/>
<stop offset="1" stop-color="#78F2FF"/>
</linearGradient>
<linearGradient id="paint2_linear_10_2168" x1="113.97" y1="318.114" x2="28.329" y2="248.761" gradientUnits="userSpaceOnUse">
<stop stop-color="white" stop-opacity="0"/>
<stop offset="0.17" stop-color="#DCFCFF" stop-opacity="0.26"/>
<stop offset="0.33" stop-color="#BEF9FF" stop-opacity="0.48"/>
<stop offset="0.49" stop-color="#A5F6FF" stop-opacity="0.67"/>
<stop offset="0.64" stop-color="#91F4FF" stop-opacity="0.81"/>
<stop offset="0.78" stop-color="#83F3FF" stop-opacity="0.92"/>
<stop offset="0.9" stop-color="#7BF2FF" stop-opacity="0.98"/>
<stop offset="1" stop-color="#78F2FF"/>
</linearGradient>
<linearGradient id="paint3_linear_10_2168" x1="744.319" y1="109.618" x2="787.133" y2="74.9284" gradientUnits="userSpaceOnUse">
<stop stop-color="white" stop-opacity="0"/>
<stop offset="0.17" stop-color="#DCFCFF" stop-opacity="0.26"/>
<stop offset="0.33" stop-color="#BEF9FF" stop-opacity="0.48"/>
<stop offset="0.49" stop-color="#A5F6FF" stop-opacity="0.67"/>
<stop offset="0.64" stop-color="#91F4FF" stop-opacity="0.81"/>
<stop offset="0.78" stop-color="#83F3FF" stop-opacity="0.92"/>
<stop offset="0.9" stop-color="#7BF2FF" stop-opacity="0.98"/>
<stop offset="1" stop-color="#78F2FF"/>
</linearGradient>
<linearGradient id="paint4_linear_10_2168" x1="497.923" y1="227.611" x2="625.057" y2="76.1043" gradientUnits="userSpaceOnUse">
<stop stop-color="white" stop-opacity="0"/>
<stop offset="0.09" stop-color="#FBFFFF" stop-opacity="0.03"/>
<stop offset="0.22" stop-color="#F0FEFF" stop-opacity="0.11"/>
<stop offset="0.38" stop-color="#DEFCFF" stop-opacity="0.25"/>
<stop offset="0.56" stop-color="#C5F9FF" stop-opacity="0.43"/>
<stop offset="0.76" stop-color="#A4F6FF" stop-opacity="0.67"/>
<stop offset="0.97" stop-color="#7EF3FF" stop-opacity="0.96"/>
<stop offset="1" stop-color="#78F2FF"/>
</linearGradient>
<linearGradient id="paint5_linear_10_2168" x1="679.419" y1="108.791" x2="686.031" y2="99.1576" gradientUnits="userSpaceOnUse">
<stop stop-color="white" stop-opacity="0"/>
<stop offset="0.09" stop-color="#FBFFFF" stop-opacity="0.03"/>
<stop offset="0.22" stop-color="#F0FEFF" stop-opacity="0.11"/>
<stop offset="0.38" stop-color="#DEFCFF" stop-opacity="0.25"/>
<stop offset="0.56" stop-color="#C5F9FF" stop-opacity="0.43"/>
<stop offset="0.76" stop-color="#A4F6FF" stop-opacity="0.67"/>
<stop offset="0.97" stop-color="#7EF3FF" stop-opacity="0.96"/>
<stop offset="1" stop-color="#78F2FF"/>
</linearGradient>
<linearGradient id="paint6_linear_10_2168" x1="551.795" y1="31.3083" x2="563.011" y2="17.9396" gradientUnits="userSpaceOnUse">
<stop stop-color="white" stop-opacity="0"/>
<stop offset="0.09" stop-color="#FBFFFF" stop-opacity="0.03"/>
<stop offset="0.22" stop-color="#F0FEFF" stop-opacity="0.11"/>
<stop offset="0.38" stop-color="#DEFCFF" stop-opacity="0.25"/>
<stop offset="0.56" stop-color="#C5F9FF" stop-opacity="0.43"/>
<stop offset="0.76" stop-color="#A4F6FF" stop-opacity="0.67"/>
<stop offset="0.97" stop-color="#7EF3FF" stop-opacity="0.96"/>
<stop offset="1" stop-color="#78F2FF"/>
</linearGradient>
<linearGradient id="paint7_linear_10_2168" x1="645.098" y1="97.8484" x2="650.091" y2="97.8484" gradientUnits="userSpaceOnUse">
<stop stop-color="white" stop-opacity="0"/>
<stop offset="0.09" stop-color="#FBFFFF" stop-opacity="0.03"/>
<stop offset="0.22" stop-color="#F0FEFF" stop-opacity="0.11"/>
<stop offset="0.38" stop-color="#DEFCFF" stop-opacity="0.25"/>
<stop offset="0.56" stop-color="#C5F9FF" stop-opacity="0.43"/>
<stop offset="0.76" stop-color="#A4F6FF" stop-opacity="0.67"/>
<stop offset="0.97" stop-color="#7EF3FF" stop-opacity="0.96"/>
<stop offset="1" stop-color="#78F2FF"/>
</linearGradient>
<linearGradient id="paint8_linear_10_2168" x1="551.385" y1="51.9035" x2="589.311" y2="51.9035" gradientUnits="userSpaceOnUse">
<stop stop-color="white" stop-opacity="0"/>
<stop offset="0.09" stop-color="#FBFFFF" stop-opacity="0.03"/>
<stop offset="0.22" stop-color="#F0FEFF" stop-opacity="0.11"/>
<stop offset="0.38" stop-color="#DEFCFF" stop-opacity="0.25"/>
<stop offset="0.56" stop-color="#C5F9FF" stop-opacity="0.43"/>
<stop offset="0.76" stop-color="#A4F6FF" stop-opacity="0.67"/>
<stop offset="0.97" stop-color="#7EF3FF" stop-opacity="0.96"/>
<stop offset="1" stop-color="#78F2FF"/>
</linearGradient>
<linearGradient id="paint9_linear_10_2168" x1="579.166" y1="69.5521" x2="602.561" y2="69.5521" gradientUnits="userSpaceOnUse">
<stop stop-color="white" stop-opacity="0"/>
<stop offset="0.09" stop-color="#FBFFFF" stop-opacity="0.03"/>
<stop offset="0.22" stop-color="#F0FEFF" stop-opacity="0.11"/>
<stop offset="0.38" stop-color="#DEFCFF" stop-opacity="0.25"/>
<stop offset="0.56" stop-color="#C5F9FF" stop-opacity="0.43"/>
<stop offset="0.76" stop-color="#A4F6FF" stop-opacity="0.67"/>
<stop offset="0.97" stop-color="#7EF3FF" stop-opacity="0.96"/>
<stop offset="1" stop-color="#78F2FF"/>
</linearGradient>
<linearGradient id="paint10_linear_10_2168" x1="614.649" y1="86.8181" x2="623.962" y2="86.8181" gradientUnits="userSpaceOnUse">
<stop stop-color="white" stop-opacity="0"/>
<stop offset="0.09" stop-color="#FBFFFF" stop-opacity="0.03"/>
<stop offset="0.22" stop-color="#F0FEFF" stop-opacity="0.11"/>
<stop offset="0.38" stop-color="#DEFCFF" stop-opacity="0.25"/>
<stop offset="0.56" stop-color="#C5F9FF" stop-opacity="0.43"/>
<stop offset="0.76" stop-color="#A4F6FF" stop-opacity="0.67"/>
<stop offset="0.97" stop-color="#7EF3FF" stop-opacity="0.96"/>
<stop offset="1" stop-color="#78F2FF"/>
</linearGradient>
</defs>
</svg>
