<svg id="Layer_1" data-name="Layer 1" xmlns="http://www.w3.org/2000/svg" viewBox="0 0 48 48"><defs><style>.cls-1{fill:#ccaddc;}.cls-2{fill:#e6d6ed;}.cls-3{fill:#995ab9;}.cls-4{fill:#fff;}</style></defs><g id="home_jadi" data-name="home jadi"><path class="cls-1" d="M22.52,4H8.91A3.41,3.41,0,0,0,5.5,7.4V40.6A3.41,3.41,0,0,0,8.91,44H22.52a3.4,3.4,0,0,0,3.4-3.4V7.4A3.4,3.4,0,0,0,22.52,4Z"/><path class="cls-2" d="M10.65,40.34a.82.82,0,1,0-.82-.81A.82.82,0,0,0,10.65,40.34Z"/><path class="cls-2" d="M15.54,40.34a.82.82,0,1,0-.81-.81A.81.81,0,0,0,15.54,40.34Z"/><path class="cls-2" d="M20.46,40.34a.82.82,0,1,0-.82-.81A.82.82,0,0,0,20.46,40.34Z"/><path class="cls-3" d="M39.22,10.93H19.64a3.28,3.28,0,0,0-3.28,3.28V33.79a3.28,3.28,0,0,0,3.28,3.28H39.22a3.28,3.28,0,0,0,3.28-3.28V14.21A3.28,3.28,0,0,0,39.22,10.93Z"/><path class="cls-2" d="M11.87,17.47a2.86,2.86,0,0,1,2,4.87,2.86,2.86,0,1,1-2-4.87Z"/><path class="cls-2" d="M13.91,24.82H9.83a.82.82,0,0,0-.82.82v4.07a.82.82,0,0,0,.82.82h4.08a.81.81,0,0,0,.81-.82V25.64A.82.82,0,0,0,13.91,24.82Z"/><path class="cls-4" d="M24.54,15.28a3.88,3.88,0,0,1,1.46.29,4,4,0,0,1,1.23.83,3.81,3.81,0,0,1,.83,1.24,3.88,3.88,0,0,1,.28,1.47,3.81,3.81,0,0,1-3.8,3.8,3.82,3.82,0,0,1-3.83-3.8A3.89,3.89,0,0,1,21,17.64a4.15,4.15,0,0,1,.83-1.24,4,4,0,0,1,1.24-.83A3.89,3.89,0,0,1,24.54,15.28Z"/><path class="cls-4" d="M27.52,25.09h-6a.82.82,0,0,0-.82.82v6a.82.82,0,0,0,.82.82h6a.82.82,0,0,0,.82-.82v-6A.82.82,0,0,0,27.52,25.09Z"/><path class="cls-4" d="M37.33,15.28h-6a.82.82,0,0,0-.82.82v6a.82.82,0,0,0,.82.82h6a.82.82,0,0,0,.82-.82v-6A.82.82,0,0,0,37.33,15.28Z"/><path class="cls-4" d="M37.83,31.9h-7l3.51-6.3Z"/></g></svg>