<svg id="Layer_1" data-name="Layer 1" xmlns="http://www.w3.org/2000/svg" xmlns:xlink="http://www.w3.org/1999/xlink" viewBox="0 0 48 48"><defs><style>.cls-1{fill:none;}.cls-2{fill:#ffe166;}.cls-3{fill:#ff9800;}.cls-4{clip-path:url(#clip-path);}.cls-5{fill:#fff;}</style><clipPath id="clip-path"><path class="cls-1" d="M20.48,17h7a1,1,0,0,1,.78.38l3.17,4a1,1,0,0,1,0,1.29l-6.69,7.53a1,1,0,0,1-1.5,0l-6.69-7.53a1,1,0,0,1,0-1.29l3.17-4A1,1,0,0,1,20.48,17Z"/></clipPath></defs><g id="home_jadi" data-name="home jadi"><path class="cls-2" d="M37,35.25H31.58a1,1,0,0,1-.74-.31,1.06,1.06,0,0,1-.31-.75,1.06,1.06,0,0,1,1-1H37a1.06,1.06,0,0,1,.75.31,1,1,0,0,1,.31.74A1.06,1.06,0,0,1,37,35.25Z"/><path class="cls-2" d="M28.92,35.25H27.13a1.06,1.06,0,0,1-1.06-1.06,1,1,0,0,1,.31-.74,1.06,1.06,0,0,1,.75-.31h1.79a1.06,1.06,0,0,1,.74.31,1.11,1.11,0,0,1,.32.74,1.06,1.06,0,0,1-1.06,1.06Z"/><path class="cls-3" d="M41.43,12.75H6.57A3.57,3.57,0,0,0,3,16.32v14.3a3.57,3.57,0,0,0,3.57,3.57H41.43A3.57,3.57,0,0,0,45,30.62V16.32A3.57,3.57,0,0,0,41.43,12.75Z"/><g class="cls-4"><polygon class="cls-2" points="20 17 28 17 32 22 24 31 16 22 20 17"/><path class="cls-5" d="M21.69,22h4.62a.5.5,0,0,1,.47.66l-2.31,6.92a.5.5,0,0,1-.94,0l-2.31-6.92A.5.5,0,0,1,21.69,22Z"/><path class="cls-5" d="M20.17,17.84l.71,3.56a.5.5,0,0,1-.49.6H16.83a.4.4,0,0,1-.31-.65l2.94-3.68A.4.4,0,0,1,20.17,17.84Z"/><path class="cls-5" d="M27.83,17.84l-.71,3.56a.5.5,0,0,0,.49.6h3.56a.4.4,0,0,0,.31-.65l-2.94-3.68A.4.4,0,0,0,27.83,17.84Z"/></g><path class="cls-2" d="M6,18.59a.82.82,0,1,0,.82-.81A.82.82,0,0,0,6,18.59Z"/><path class="cls-2" d="M6,23.49a.82.82,0,1,0,.82-.82A.82.82,0,0,0,6,23.49Z"/><path class="cls-2" d="M6,28.41a.82.82,0,1,0,.82-.82A.82.82,0,0,0,6,28.41Z"/></g></svg>