<svg id="Layer_1" data-name="Layer 1" xmlns="http://www.w3.org/2000/svg" viewBox="0 0 48 48"><defs><style>.cls-1{fill:#3492b8;}.cls-2{fill:#41b6e6;}.cls-3{fill:#fff;}.cls-4{fill:#d9f0fa;}</style></defs><g id="home_jadi" data-name="home jadi"><path class="cls-1" d="M43.62,27a71.86,71.86,0,0,0-1.21-8.5A17.77,17.77,0,0,0,39.14,12a20.25,20.25,0,0,0-5.18-.9A97.4,97.4,0,0,0,24,10.57a99.2,99.2,0,0,0-10,.54,20.25,20.25,0,0,0-5.18.9,17.82,17.82,0,0,0-3.11,6.51A71.86,71.86,0,0,0,4.46,27a20.67,20.67,0,0,0,.26,8.18A5.37,5.37,0,0,0,6.59,37a5.32,5.32,0,0,0,2.49.66c.61,0,1.05-.14,1.13-.36v-.18a50,50,0,0,1,2-5.31c1.2-2.85,2.19-4.24,3-4.26a3.4,3.4,0,0,1,1.09.3,5.18,5.18,0,0,0,1.82.45h.1a3.92,3.92,0,0,0,1.51-.35,5.63,5.63,0,0,1,2.21-.48H26.1a5.63,5.63,0,0,1,2.21.48,3.92,3.92,0,0,0,1.51.35h.1a5.31,5.31,0,0,0,1.87-.51,3.34,3.34,0,0,1,1.08-.3c.82,0,1.79,1.41,3,4.26.93,2.17,1.67,4.54,2,5.31v.18c0,.22.51.36,1.11.36a5.29,5.29,0,0,0,4.44-2.43A20.75,20.75,0,0,0,43.62,27Z"/><path class="cls-2" d="M4.5,35.26c-1.28-2.55.22-13.86,1-16.76a17.6,17.6,0,0,1,3.31-6.61,40.15,40.15,0,0,1,9.56-1.28h.06l.05,0a.05.05,0,0,1,0,0,.06.06,0,0,1,0,.06c-.36,1.6-1,4.22-1.44,6a12.7,12.7,0,0,1-2,3.5,18.25,18.25,0,0,0-2.79,5.22c-1.71,5-1.49,10.43-2,11.86C10,38.29,5.77,37.81,4.5,35.26Zm39,0c1.28-2.55-.22-13.86-1-16.76a17.6,17.6,0,0,0-3.31-6.61,40.29,40.29,0,0,0-9.46-1.28h-.06l0,0a.05.05,0,0,0,0,0,.06.06,0,0,0,0,.06c.36,1.6,1,4.22,1.44,6a12.7,12.7,0,0,0,2,3.5,17.93,17.93,0,0,1,2.71,5.18c1.71,4.95,1.49,10.43,2,11.86C38,38.29,42.23,37.81,43.5,35.26Z"/><path class="cls-3" d="M29.7,27a3.22,3.22,0,1,0-3.22-3.21A3.21,3.21,0,0,0,29.7,27Z"/><path class="cls-1" d="M29.71,26.05a2.25,2.25,0,0,0,0-4.5,2.25,2.25,0,1,0,0,4.5Z"/><path class="cls-3" d="M18.3,27a3.22,3.22,0,1,0-3.21-3.21A3.22,3.22,0,0,0,18.3,27Z"/><path class="cls-1" d="M18.32,26.06a2.25,2.25,0,0,0,0-4.5,2.25,2.25,0,1,0,0,4.5Z"/><path class="cls-3" d="M38.09,14.93a1.32,1.32,0,0,1-2.26.93,1.29,1.29,0,0,1-.39-.93,1.32,1.32,0,0,1,.39-.94,1.33,1.33,0,0,1,1.88,0A1.35,1.35,0,0,1,38.09,14.93Zm-1.32,4a1.34,1.34,0,0,0-1.26.82,1.39,1.39,0,0,0-.08.78,1.25,1.25,0,0,0,.36.69,1.28,1.28,0,0,0,.69.38,1.39,1.39,0,0,0,.78-.07,1.42,1.42,0,0,0,.61-.5,1.4,1.4,0,0,0,.22-.75,1.3,1.3,0,0,0-.35-1,1.39,1.39,0,0,0-.45-.31,1.31,1.31,0,0,0-.52-.11Zm2.65-2.71a1.33,1.33,0,0,0-.94,2.27,1.35,1.35,0,0,0,1.88,0,1.33,1.33,0,0,0-.94-2.27Zm-5.3,0a1.36,1.36,0,0,0-1.23.82,1.27,1.27,0,0,0-.07.77,1.31,1.31,0,0,0,1.8,1,1.31,1.31,0,0,0,.6-.49,1.33,1.33,0,0,0-.17-1.67A1.31,1.31,0,0,0,34.12,16.23Z"/><path class="cls-3" d="M7.92,18.88a.28.28,0,0,1-.17-.09.24.24,0,0,1-.07-.17,8.45,8.45,0,0,1,0-2,.31.31,0,0,1,.09-.18A.33.33,0,0,1,8,16.35l1,.1h.14l1.31.91a.43.43,0,0,1,.09.1.35.35,0,0,1,0,.14.34.34,0,0,1-.12.12l-1.31.92H9l-1,.1Zm6.63,0a.29.29,0,0,0,.19-.08.28.28,0,0,0,.09-.18,9.37,9.37,0,0,0,0-1.06,9.2,9.2,0,0,0,0-1,.31.31,0,0,0-.09-.18.36.36,0,0,0-.19-.08l-1,.1H13.4l-1.32.91a.28.28,0,0,0-.09.1.35.35,0,0,0,0,.14.25.25,0,0,0,0,.12.23.23,0,0,0,.07.1l1.32.92h.14l1,.1Zm-3.08-2.11.93-1.32a.33.33,0,0,0,0-.14v-1a.33.33,0,0,0-.07-.21.31.31,0,0,0-.19-.11,9.65,9.65,0,0,0-2,0,.31.31,0,0,0-.2.11.27.27,0,0,0-.06.21v1a.33.33,0,0,0,0,.14l.92,1.32a.31.31,0,0,0,.11.09.28.28,0,0,0,.13,0,.35.35,0,0,0,.14,0,.28.28,0,0,0,.1-.09Zm.81,4.38a.23.23,0,0,0,.11,0,.28.28,0,0,0,.09-.07.31.31,0,0,0,0-.1.49.49,0,0,0,0-.12v-1a.33.33,0,0,0,0-.14l-.93-1.33a.22.22,0,0,0-.1-.09.32.32,0,0,0-.14,0,.31.31,0,0,0-.13,0,.31.31,0,0,0-.11.09l-1.06,1.37a.33.33,0,0,0,0,.14v1a.24.24,0,0,0,0,.12.21.21,0,0,0,.06.1.16.16,0,0,0,.09.07.2.2,0,0,0,.11,0,8.45,8.45,0,0,0,2,0Z"/><path class="cls-4" d="M24,10.2a65.4,65.4,0,0,0-8.56.55l1.27,5.66a2.83,2.83,0,0,0,3,2.35h8.56a2.81,2.81,0,0,0,3-2.35l1.29-5.66C29.43,10.29,24,10.2,24,10.2Z"/></g></svg>