<svg id="Layer_1" data-name="Layer 1" xmlns="http://www.w3.org/2000/svg" viewBox="0 0 48 48"><defs><style>.cls-1{fill:#83b2ee;}.cls-2{fill:#fff;}.cls-3{fill:#307fe2;}</style></defs><g id="home_jadi" data-name="home jadi"><path class="cls-1" d="M24.89,6.11H8.72A2.73,2.73,0,0,0,6,8.83V34.38a2.76,2.76,0,0,0,.8,1.92,2.72,2.72,0,0,0,1.92.8H24.89a2.88,2.88,0,0,0,1.05-.2,2.78,2.78,0,0,0,.88-.59,2.94,2.94,0,0,0,.59-.89,2.65,2.65,0,0,0,.21-1V8.83a2.65,2.65,0,0,0-.21-1,2.78,2.78,0,0,0-.59-.88,2.48,2.48,0,0,0-.88-.59A2.7,2.7,0,0,0,24.89,6.11Zm-6.14,4.31h-4a.67.67,0,0,1-.48-.2.69.69,0,0,1,0-1,.67.67,0,0,1,.48-.2H15a.65.65,0,0,0,.38-.13.72.72,0,0,0,.26-.31,1.11,1.11,0,0,1,.46-.52A1.19,1.19,0,0,1,16.81,8a1.16,1.16,0,0,1,.65.2,1.19,1.19,0,0,1,.44.53.7.7,0,0,0,.24.32.64.64,0,0,0,.38.12h.23a.68.68,0,1,1,0,1.35Z"/><path class="cls-2" d="M22.21,17.33H11.4a2.23,2.23,0,0,0-2.22,2.23V31.28a2.23,2.23,0,0,0,2.22,2.23H22.21a2.23,2.23,0,0,0,2.23-2.23V19.56A2.23,2.23,0,0,0,22.21,17.33Z"/><path class="cls-1" d="M13.79,21.86v7a.33.33,0,0,0,0,.17.27.27,0,0,0,.13.13.31.31,0,0,0,.34,0l6.38-3.5a.27.27,0,0,0,.13-.13.31.31,0,0,0,0-.34.27.27,0,0,0-.13-.13L14.3,21.53a.28.28,0,0,0-.18-.06.3.3,0,0,0-.18.06.29.29,0,0,0-.13.14A.41.41,0,0,0,13.79,21.86Z"/><path class="cls-3" d="M39.28,10.9H23.11a2.72,2.72,0,0,0-1.92.8,2.77,2.77,0,0,0-.81,1.92V39.17a2.77,2.77,0,0,0,.81,1.92,2.72,2.72,0,0,0,1.92.8H39.28a2.72,2.72,0,0,0,1.92-.8,2.76,2.76,0,0,0,.8-1.92V13.62a2.76,2.76,0,0,0-.8-1.92A2.72,2.72,0,0,0,39.28,10.9Zm-6.14,4.31h-4a.66.66,0,0,1-.48-.2.67.67,0,0,1-.2-.48.61.61,0,0,1,.08-.26.68.68,0,0,1,.17-.21.68.68,0,0,1,.24-.12.6.6,0,0,1,.27,0h.23a.76.76,0,0,0,.37-.15.69.69,0,0,0,.23-.33,1.17,1.17,0,0,1,.42-.54,1.08,1.08,0,0,1,.65-.19,1,1,0,0,1,.66.2,1.14,1.14,0,0,1,.44.53.59.59,0,0,0,.24.3.63.63,0,0,0,.37.12h.24a.67.67,0,0,1,.48.2.67.67,0,0,1,.19.47.63.63,0,0,1-.18.47A.7.7,0,0,1,33.14,15.21Z"/><path class="cls-2" d="M31.15,22.52a7.7,7.7,0,0,1,5.44,13.13,7.78,7.78,0,0,1-3.94,2.1,7.7,7.7,0,0,1-9.19-7.54A7.87,7.87,0,0,1,24,27.26a7.79,7.79,0,0,1,1.67-2.49,7.66,7.66,0,0,1,5.44-2.25Z"/><path class="cls-3" d="M33.7,25.08a3.41,3.41,0,0,0-3.4,3.42,3.18,3.18,0,0,0,.51,1.77.8.8,0,0,0-.27.18l-.76.75a2,2,0,0,0-.77-.14,2.12,2.12,0,0,0-.83.16,1.91,1.91,0,0,0-.68.48L23,29.43a.94.94,0,0,0-.66,0,.84.84,0,0,0-.59.74.83.83,0,0,0,.21.63.86.86,0,0,0,.26.2l4.67,2.33a2.1,2.1,0,0,0,.66,1.41,2.06,2.06,0,0,0,1.45.57,2.09,2.09,0,0,0,.82-.15,2.14,2.14,0,0,0,.69-.46A2.17,2.17,0,0,0,31,34a2.1,2.1,0,0,0,.16-.82,1.91,1.91,0,0,0-.16-.78l.76-.75a1.2,1.2,0,0,0,.18-.26A3.41,3.41,0,1,0,33.7,25Z"/><path class="cls-2" d="M33.7,30.21A1.71,1.71,0,1,0,32,28.5,1.71,1.71,0,0,0,33.7,30.21Z"/></g></svg>