<svg id="Layer_1" data-name="Layer 1" xmlns="http://www.w3.org/2000/svg" viewBox="0 0 48 48"><defs><style>.cls-1{fill:#d62598;}.cls-2{fill:#e67cc1;}.cls-3{fill:#f7d3ea;}.cls-4{fill:#fff;}</style></defs><g id="home_jadi" data-name="home jadi"><path class="cls-1" d="M28.13,32.27h-6.6v4.95h6.6Z"/><path class="cls-1" d="M14.94,35.57h19.8a3.3,3.3,0,0,1,2.32,1,3.36,3.36,0,0,1,1,2.32v1.65H11.63V38.84a3.29,3.29,0,0,1,3.31-3.27Z"/><path class="cls-2" d="M42,8.48a3.3,3.3,0,0,0-1-.69l-.05,0c-.13,0-.27-.08-.4-.12l-.23-.07a3.49,3.49,0,0,0-.65-.06H8.31l-.24,0-.4,0a2,2,0,0,0-.32.1,2.45,2.45,0,0,0-.29.08H7l-.19.1a3.26,3.26,0,0,0-1.6,1.69A3.42,3.42,0,0,0,5,10.82v19.8a3.5,3.5,0,0,0,.25,1.27A3.39,3.39,0,0,0,6,33a3.22,3.22,0,0,0,1.08.71,3.61,3.61,0,0,0,1.12.23H39.69A3.36,3.36,0,0,0,42,33a3.26,3.26,0,0,0,.72-1.07A3.41,3.41,0,0,0,43,30.62V10.82A3.31,3.31,0,0,0,42,8.48Z"/><path class="cls-3" d="M34.17,11.65a.83.83,0,1,0-.83-.83A.83.83,0,0,0,34.17,11.65Z"/><path class="cls-3" d="M37.17,11.65a.83.83,0,1,0-.83-.83A.83.83,0,0,0,37.17,11.65Z"/><path class="cls-3" d="M40.17,11.65a.83.83,0,1,0-.83-.83A.83.83,0,0,0,40.17,11.65Z"/><path class="cls-3" d="M14.57,30.34H8a.88.88,0,0,0-.58.25.9.9,0,0,0-.25.58A.82.82,0,0,0,8,32h6.61a.91.91,0,0,0,.32-.06.8.8,0,0,0,.27-.18.71.71,0,0,0,.18-.27.7.7,0,0,0,.05-.32.78.78,0,0,0-.24-.58A.79.79,0,0,0,14.57,30.34Z"/><path class="cls-4" d="M24.71,24.54l-8.9-7.49a1,1,0,0,1-.29-.61l-.29-3.12a1,1,0,0,1,1.09-1.09l3.12.29a1,1,0,0,1,.61.29l7.49,8.9Z"/><rect class="cls-3" x="21.47" y="21.97" width="10" height="3" rx="0.87" transform="translate(-8.84 25.6) rotate(-45)"/><path class="cls-3" d="M27.66,23.66h4a0,0,0,0,1,0,0v5a1,1,0,0,1-1,1h-2a1,1,0,0,1-1-1v-5A0,0,0,0,1,27.66,23.66Z" transform="translate(-10.16 28.78) rotate(-45)"/></g></svg>