<svg id="Layer_1" data-name="Layer 1" xmlns="http://www.w3.org/2000/svg" viewBox="0 0 48 48"><defs><style>.cls-1{fill:#43b02a;}.cls-2{fill:#fff;}.cls-3{fill:#8ed07f;}.cls-4{fill:#d9efd4;}</style></defs><g id="home_jadi" data-name="home jadi"><path class="cls-1" d="M39.6,10.66H19.51A3.35,3.35,0,0,0,16.17,14V34.08a3.34,3.34,0,0,0,3.34,3.34H39.6a3.34,3.34,0,0,0,3.34-3.34V14A3.35,3.35,0,0,0,39.6,10.66Z"/><path class="cls-2" d="M34.18,16.52l-6.3,8.15h4.39L31,31.58l6.91-9.41H33.53Z"/><path class="cls-3" d="M22.08,4H8.46a3.4,3.4,0,0,0-3.4,3.4V40.6A3.4,3.4,0,0,0,8.46,44H22.08a3.4,3.4,0,0,0,3.4-3.4V7.4A3.4,3.4,0,0,0,22.08,4Z"/><path class="cls-4" d="M10.31,40.79a.85.85,0,0,0,0-1.69.85.85,0,0,0,0,1.69Z"/><path class="cls-4" d="M15.33,40.79a.85.85,0,0,0,0-1.69.85.85,0,0,0,0,1.69Z"/><path class="cls-4" d="M20.35,40.79a.85.85,0,1,0-.84-.84A.85.85,0,0,0,20.35,40.79Z"/><circle class="cls-4" cx="15.26" cy="27.72" r="1.2"/><path class="cls-4" d="M18.54,26a1,1,0,0,1-.82-.43,3.11,3.11,0,0,0-4.92,0,1,1,0,0,1-1.64-1.14,5,5,0,0,1,8.2,0,1,1,0,0,1-.24,1.39A1,1,0,0,1,18.54,26Z"/><path class="cls-4" d="M21.37,23a1,1,0,0,1-.77-.36,6.9,6.9,0,0,0-10.68,0,1,1,0,1,1-1.53-1.28,8.9,8.9,0,0,1,13.75,0A1,1,0,0,1,21.37,23Z"/></g></svg>