<svg id="Layer_1" data-name="Layer 1" xmlns="http://www.w3.org/2000/svg" viewBox="0 0 48 48"><defs><style>.cls-1{fill:#e99fab;}.cls-2{fill:#c8102e;}.cls-3{fill:#fff;}</style></defs><g id="home_jadi" data-name="home jadi"><path class="cls-1" d="M29.54,6.8a2.43,2.43,0,0,0-2.09-.5L14,9.18a2.51,2.51,0,0,0-2,2.44V25.75a1.12,1.12,0,0,1-.4.38,1.58,1.58,0,0,1-.71.16c-2.54.23-5.5,1.34-6.34,3.24A3.74,3.74,0,0,0,4,31.91,3.81,3.81,0,0,0,5.1,34.12a5.91,5.91,0,0,0,3.49,1.51l.44,0a5.93,5.93,0,0,0,3.24-1,6.12,6.12,0,0,0,2.76-5V18.41a1.52,1.52,0,0,1,1.2-1.47l9.24-2a1.5,1.5,0,0,1,1.26.31,1.48,1.48,0,0,1,.56,1.17v6a1.29,1.29,0,0,1-.38.28,1.45,1.45,0,0,1-.65.14h0c-2.54.24-5.49,1.34-6.34,3.24a3.74,3.74,0,0,0,.57,4.59A5.8,5.8,0,0,0,24,32.21a5.72,5.72,0,0,0,3.66-1,6,6,0,0,0,2-2.14,6.2,6.2,0,0,0,.8-2.85V8.74A2.47,2.47,0,0,0,29.54,6.8Z"/><path class="cls-2" d="M41.52,26.89H24.17a2.48,2.48,0,0,0-2.48,2.48v9.91a2.48,2.48,0,0,0,2.48,2.48H41.52A2.48,2.48,0,0,0,44,39.28V29.37A2.48,2.48,0,0,0,41.52,26.89Z"/><path class="cls-3" d="M29.87,31.11v6.43a.38.38,0,0,0,.05.15.32.32,0,0,0,.11.12.42.42,0,0,0,.15,0,.3.3,0,0,0,.16,0l5.8-3.26a.3.3,0,0,0,.18-.27.33.33,0,0,0,0-.16.32.32,0,0,0-.13-.1L30.27,30.8a.33.33,0,0,0-.14,0,.31.31,0,0,0-.13.06.24.24,0,0,0-.09.11A.33.33,0,0,0,29.87,31.11Z"/></g></svg>